<?xml version="1.0" encoding="utf-8"?>
<!-- Generator: Adobe Illustrator 24.1.1, SVG Export Plug-In . SVG Version: 6.00 Build 0)  -->
<svg version="1.1" id="Layer_1" xmlns="http://www.w3.org/2000/svg" xmlns:xlink="http://www.w3.org/1999/xlink" x="0px" y="0px"
	 viewBox="0 0 512 512" style="enable-background:new 0 0 512 512;" xml:space="preserve">
<g>
	<path d="M0,0v512h512V0H0z M149.8,85.3h34.8c26.1,0,35,0.6,35.6,2.4c0.4,1.4,0.7,29.2,0.7,61.8l-0.2,59.3l10.1-9
		c14.1-12.4,25.9-16.8,48.3-17.6c14.8-0.4,20.8,0.2,31.1,3.8c22.7,7.6,38.7,23.2,47,46.2c3.3,9,3.7,18.4,4.3,91.4l0.7,81.6H291
		v-66.6c0-65.6-0.2-66.4-4.6-74.4c-6.3-10.6-13-15.4-23.7-16.6c-18.2-2-30.8,4.2-37.9,19c-3.4,6.8-3.8,14-4,71.6
		c-0.3,35.2-0.7,64.7-0.7,65.4c-0.2,1-16,1.6-35.2,1.6H150v-160L149.8,85.3z"/>
</g>
</svg>
